<svg xmlns="http://www.w3.org/2000/svg" xmlns:xlink="http://www.w3.org/1999/xlink" version="1.1" x="0px" y="0px" viewBox="0 0 100 125" style="enable-background:new 0 0 100 100;" xml:space="preserve"><path d="M97.401,60.916v-5.975c0-1.938-1.304-3.659-3.171-4.184l-11.658-3.274l-8.91-10.268c-0.849-0.979-2.078-1.54-3.374-1.54  h-1.909l-0.115-0.269c-0.064-0.151-0.212-0.248-0.376-0.248h-0.214l-0.42-2.469c-0.053-0.31-0.331-0.538-0.656-0.538h-1.829  c-0.326,0-0.603,0.228-0.656,0.538l-0.42,2.469h-0.214c-0.164,0-0.312,0.098-0.376,0.248l-0.115,0.269h-2.889l0.004-5.222  c0-0.551-0.448-1-1-1H3.347c-0.551,0-1,0.449-1,1v2.231H1.455c-0.105,0-0.19,0.085-0.19,0.189v1.51c0,0.105,0.085,0.189,0.19,0.189  h0.893v26.223H1.455c-0.105,0-0.19,0.085-0.19,0.189v1.51c0,0.105,0.085,0.189,0.19,0.189h0.893v2.731h0.93h0.07h10.406h1v-1.197  c0-3.718,3.025-6.743,6.743-6.743s6.743,3.025,6.743,6.743v1.197h1l48.344,0.012l0.01,0h1v-1.197c0-3.718,3.025-6.743,6.743-6.743  s6.743,3.025,6.743,6.743v1.197h1v-0.013h5.654v-1.197v-3.302H97.401z M65.719,32.619c0.004-0.078,0.057-0.14,0.12-0.14h0.66  c0.064,0,0.117,0.061,0.12,0.14l0.122,2.538h-1.144L65.719,32.619z M70.288,36.675c1.006,0,1.96,0.436,2.618,1.195l9.107,10.495  l7.063,1.983h-8.584v-1.945c0-0.273-0.096-0.54-0.271-0.751l-8.214-9.91c-0.232-0.28-0.575-0.441-0.939-0.441h-9.755  c-0.207,0-0.375,0.168-0.375,0.375v26.552l-0.864,0l0.024-27.552H70.288z M75.114,64.231l-13.426-0.003v-9.737l17.471,0  l-3.185,5.327c-0.099,0.165-0.164,0.344-0.194,0.528L75.114,64.231z M61.688,50.348V38.05h9.38c0.141,0,0.272,0.062,0.362,0.17  l8.213,9.909c0.063,0.077,0.099,0.174,0.099,0.273v1.945H61.688z M47.344,35.68H34.886c-0.379,0-0.688,0.309-0.688,0.688v13.981  H3.347l0-15.499h55.752l-0.013,15.499H48.032V36.368C48.032,35.988,47.724,35.68,47.344,35.68z M47.344,62.134H34.948L34.886,36.43  l12.396-0.062L47.344,62.134z M6.196,34.374V32.92c0-0.052,0.042-0.093,0.093-0.093h2.273c0.052,0,0.093,0.042,0.093,0.093v1.454  c0,0.052-0.042,0.093-0.093,0.093H6.289C6.238,34.467,6.196,34.425,6.196,34.374z M53.306,34.374V32.92  c0-0.052,0.042-0.093,0.093-0.093h2.273c0.052,0,0.093,0.042,0.093,0.093v1.454c0,0.052-0.042,0.093-0.093,0.093H53.4  C53.348,34.467,53.306,34.425,53.306,34.374z M59.103,30.453l-0.002,1.992H3.347v-1.992L59.103,30.453z M21.497,56.476  c-4.27,0-7.743,3.474-7.743,7.743H3.348l0-9.728h30.851v7.706c0,0.379,0.309,0.688,0.688,0.688h12.458  c0.379,0,0.688-0.309,0.688-0.688v-7.706h11.05l-0.008,9.736L29.24,64.219C29.24,59.949,25.766,56.476,21.497,56.476z   M85.337,56.488c-4.27,0-7.743,3.474-7.743,7.743l-1.72,0l0.644-3.759c0.016-0.095,0.049-0.186,0.1-0.27l3.415-5.711l16.331,0  c0.02,0.148,0.038,0.298,0.038,0.45v0.596h-2.21c-0.148,0-0.269,0.12-0.269,0.269v2.197c0,0.148,0.12,0.269,0.269,0.269h2.21v2.645  h-4.077C91.079,58.303,88.42,56.488,85.337,56.488z M96.014,55.901v1.966h-0.896v-1.966H96.014z"/><path d="M21.53,57.916c-3.482,0-6.315,2.833-6.315,6.315s2.833,6.315,6.315,6.315s6.315-2.833,6.315-6.315  S25.012,57.916,21.53,57.916z M21.53,68.547c-2.379,0-4.315-1.936-4.315-4.315s1.936-4.315,4.315-4.315s4.315,1.936,4.315,4.315  S23.91,68.547,21.53,68.547z"/><path d="M21.53,60.439c-2.091,0-3.792,1.701-3.792,3.792s1.701,3.792,3.792,3.792s3.792-1.701,3.792-3.792  S23.621,60.439,21.53,60.439z M21.979,63.655c-0.102-0.08-0.223-0.131-0.359-0.148l0.052-0.418c0.213,0.027,0.404,0.107,0.565,0.234  L21.979,63.655z M21.44,63.507c-0.135,0.017-0.256,0.068-0.359,0.148l-0.259-0.332c0.162-0.126,0.352-0.206,0.565-0.234  L21.44,63.507z M20.954,63.783c-0.08,0.102-0.131,0.223-0.148,0.359l-0.418-0.052c0.027-0.213,0.107-0.404,0.233-0.565  L20.954,63.783z M20.806,64.322c0.017,0.135,0.068,0.256,0.148,0.359l-0.332,0.259c-0.126-0.162-0.206-0.352-0.233-0.565  L20.806,64.322z M21.082,64.808c0.102,0.08,0.223,0.131,0.359,0.148l-0.052,0.418c-0.213-0.027-0.404-0.107-0.565-0.234  L21.082,64.808z M21.62,64.956c0.135-0.017,0.256-0.068,0.359-0.148l0.259,0.332c-0.161,0.126-0.352,0.206-0.565,0.234L21.62,64.956  z M22.107,64.68c0.08-0.102,0.131-0.223,0.148-0.359l0.418,0.052c-0.027,0.213-0.107,0.404-0.233,0.565L22.107,64.68z   M22.254,64.141c-0.017-0.135-0.068-0.256-0.148-0.359l0.332-0.259c0.126,0.162,0.206,0.352,0.233,0.565L22.254,64.141z   M22.552,62.919c-0.232-0.181-0.51-0.3-0.816-0.338l0.138-1.107c0.511,0.064,0.977,0.262,1.364,0.565L22.552,62.919z M21.325,62.581  c-0.306,0.038-0.584,0.157-0.816,0.338l-0.686-0.881c0.387-0.302,0.853-0.501,1.364-0.564L21.325,62.581z M20.218,63.21  c-0.181,0.232-0.3,0.51-0.338,0.816l-1.108-0.138c0.064-0.511,0.262-0.977,0.565-1.364L20.218,63.21z M19.881,64.437  c0.038,0.306,0.157,0.584,0.338,0.816l-0.881,0.686c-0.302-0.387-0.501-0.853-0.565-1.364L19.881,64.437z M20.509,65.544  c0.232,0.181,0.51,0.3,0.816,0.338l-0.138,1.107c-0.511-0.064-0.977-0.262-1.364-0.565L20.509,65.544z M21.736,65.882  c0.306-0.038,0.584-0.157,0.816-0.338l0.686,0.881c-0.387,0.302-0.853,0.501-1.364,0.565L21.736,65.882z M22.842,65.253  c0.181-0.232,0.3-0.51,0.338-0.816l1.108,0.138c-0.064,0.511-0.262,0.977-0.564,1.364L22.842,65.253z M23.18,64.026  c-0.038-0.306-0.157-0.584-0.338-0.816l0.881-0.686c0.302,0.387,0.501,0.853,0.565,1.364L23.18,64.026z"/><path d="M49.715,49.931h6.066c0.379,0,0.688-0.309,0.688-0.688V36.359c0-0.379-0.309-0.688-0.688-0.688h-6.066  c-0.379,0-0.688,0.309-0.688,0.688v12.884C49.027,49.622,49.335,49.931,49.715,49.931z M55.718,36.359l0.062,12.821h-6.004  l-0.062-12.759L55.718,36.359z"/><path d="M55.781,55.441h-6.066c-0.379,0-0.688,0.309-0.688,0.688v6.066c0,0.379,0.309,0.688,0.688,0.688h6.066  c0.379,0,0.688-0.309,0.688-0.688V56.13C56.468,55.75,56.16,55.441,55.781,55.441z M49.776,62.134l-0.062-5.942l6.003-0.062  l0.062,6.004H49.776z"/><path d="M70.903,39.01c-0.071-0.088-0.179-0.139-0.292-0.139h-7.59c-0.207,0-0.375,0.168-0.375,0.375v8.438  c0,0.207,0.168,0.375,0.375,0.375h14.417c0.145,0,0.276-0.083,0.339-0.213c0.062-0.13,0.044-0.285-0.047-0.397L70.903,39.01z   M63.396,47.31v-7.688h7.036l6.22,7.688H63.396z"/><path d="M36.968,49.06h8.294c0.207,0,0.375-0.168,0.375-0.375V38.246c0-0.207-0.168-0.375-0.375-0.375h-8.294  c-0.207,0-0.375,0.168-0.375,0.375v10.438C36.593,48.892,36.761,49.06,36.968,49.06z M37.343,38.621h7.544v9.688h-7.544V38.621z"/><path d="M11.153,55.723H5.54c-0.426,0-0.773,0.348-0.773,0.774v5.612c0,0.427,0.347,0.774,0.773,0.774h5.613  c0.426,0,0.773-0.348,0.773-0.774v-5.612C11.926,56.07,11.579,55.723,11.153,55.723z M11.153,62.134H5.54l-0.023-0.024l0.023-5.637  l5.637,0.024L11.153,62.134z"/><path d="M18.505,36.026c-3.564,0-6.464,2.9-6.464,6.464c0,3.564,2.9,6.464,6.464,6.464c3.564,0,6.464-2.9,6.464-6.464  C24.969,38.926,22.069,36.026,18.505,36.026z M18.505,48.205c-3.151,0-5.714-2.563-5.714-5.714s2.563-5.714,5.714-5.714  s5.714,2.563,5.714,5.714S21.656,48.205,18.505,48.205z"/><polygon points="19.964,38.087 16.964,38.087 16.964,40.95 14.101,40.95 14.101,43.95 16.964,43.95 16.964,46.895 19.964,46.895   19.964,43.95 22.909,43.95 22.909,40.95 19.964,40.95 "/><path d="M85.337,57.916c-3.482,0-6.315,2.833-6.315,6.315s2.833,6.315,6.315,6.315c3.481,0,6.314-2.833,6.314-6.315  S88.819,57.916,85.337,57.916z M85.337,68.547c-2.38,0-4.315-1.936-4.315-4.315s1.936-4.315,4.315-4.315  c2.379,0,4.314,1.936,4.314,4.315S87.716,68.547,85.337,68.547z"/><path d="M85.337,60.439c-2.091,0-3.792,1.701-3.792,3.792s1.701,3.792,3.792,3.792s3.792-1.701,3.792-3.792  S87.428,60.439,85.337,60.439z M85.786,63.655c-0.102-0.08-0.223-0.131-0.359-0.148l0.052-0.418  c0.213,0.027,0.404,0.108,0.565,0.234L85.786,63.655z M85.247,63.507c-0.135,0.017-0.256,0.068-0.359,0.148l-0.259-0.332  c0.162-0.126,0.352-0.206,0.565-0.234L85.247,63.507z M84.761,63.783c-0.08,0.102-0.131,0.223-0.148,0.359l-0.418-0.052  c0.027-0.213,0.107-0.404,0.233-0.565L84.761,63.783z M84.613,64.322c0.017,0.135,0.068,0.256,0.148,0.359l-0.332,0.259  c-0.126-0.162-0.206-0.352-0.233-0.565L84.613,64.322z M84.888,64.808c0.102,0.08,0.223,0.131,0.359,0.148l-0.052,0.418  c-0.213-0.027-0.404-0.108-0.565-0.234L84.888,64.808z M85.427,64.956c0.135-0.017,0.256-0.068,0.359-0.148l0.259,0.332  c-0.161,0.126-0.352,0.207-0.565,0.234L85.427,64.956z M85.913,64.68c0.08-0.102,0.131-0.223,0.148-0.359l0.417,0.052  c-0.027,0.213-0.107,0.404-0.233,0.565L85.913,64.68z M86.061,64.141c-0.017-0.135-0.068-0.256-0.148-0.359l0.332-0.259  c0.126,0.162,0.206,0.352,0.233,0.565L86.061,64.141z M86.359,62.919c-0.232-0.181-0.51-0.3-0.816-0.338l0.138-1.107  c0.511,0.064,0.977,0.262,1.364,0.565L86.359,62.919z M85.132,62.581c-0.306,0.038-0.584,0.157-0.816,0.338l-0.686-0.881  c0.387-0.302,0.853-0.501,1.364-0.565L85.132,62.581z M84.025,63.21c-0.181,0.232-0.3,0.51-0.338,0.816l-1.107-0.138  c0.064-0.511,0.262-0.977,0.565-1.364L84.025,63.21z M83.687,64.437c0.038,0.306,0.157,0.584,0.338,0.816l-0.881,0.686  c-0.302-0.387-0.501-0.853-0.564-1.364L83.687,64.437z M84.316,65.543c0.232,0.181,0.51,0.3,0.816,0.338l-0.138,1.107  c-0.511-0.064-0.977-0.262-1.364-0.565L84.316,65.543z M85.543,65.882c0.306-0.038,0.584-0.157,0.816-0.338l0.686,0.881  c-0.387,0.302-0.853,0.501-1.364,0.565L85.543,65.882z M86.649,65.253c0.181-0.232,0.299-0.51,0.337-0.816l1.108,0.138  c-0.064,0.511-0.262,0.977-0.565,1.364L86.649,65.253z M86.987,64.026c-0.038-0.306-0.157-0.584-0.338-0.816l0.881-0.686  c0.302,0.387,0.501,0.853,0.565,1.364L86.987,64.026z"/><path d="M93.081,56.796v-1.151c0-0.06-0.048-0.108-0.108-0.108h-3.154c-0.06,0-0.108,0.048-0.108,0.108v1.151  c0,0.06,0.048,0.108,0.108,0.108h3.154C93.032,56.904,93.081,56.856,93.081,56.796z"/><text x="0" y="115" fill="#000000" font-size="5px" font-weight="bold" font-family="'Helvetica Neue', Helvetica, Arial-Unicode, Arial, Sans-serif">Created by Mahmure Alp</text><text x="0" y="120" fill="#000000" font-size="5px" font-weight="bold" font-family="'Helvetica Neue', Helvetica, Arial-Unicode, Arial, Sans-serif">from the Noun Project</text></svg>